<svg xmlns="http://www.w3.org/2000/svg" xmlns:xlink="http://www.w3.org/1999/xlink" width="24" height="24" viewBox="0 0 24 24">
  <defs>
    <clipPath id="clip-path">
      <rect id="Rectangle_1" data-name="Rectangle 1" width="24" height="24" transform="translate(373.5 1198)" fill="none" stroke="#707070" stroke-width="1"/>
    </clipPath>
  </defs>
  <g id="Group_7886" data-name="Group 7886" transform="translate(-112 -766)">
    <g id="Group_7887" data-name="Group 7887">
      <g id="Mask_Group_1" data-name="Mask Group 1" transform="translate(-261.5 -432)" clip-path="url(#clip-path)">
        <g id="Group_7" data-name="Group 7" transform="translate(-0.5 -0.137)">
          <g id="Iconly_Light-outline_Message" data-name="Iconly/Light-outline/Message" transform="translate(376 1202.137)">
            <g id="Message">
              <path id="Message-2" data-name="Message" d="M13.921,16.3H5.232a5.178,5.178,0,0,1-3.756-1.533A5.357,5.357,0,0,1,0,11V5.307A5.357,5.357,0,0,1,1.476,1.533,5.178,5.178,0,0,1,5.232,0h8.7a5.466,5.466,0,0,1,3.824,1.606,4.878,4.878,0,0,1,1.417,3.7l0,5.649A4.927,4.927,0,0,1,17.753,14.7,5.475,5.475,0,0,1,13.921,16.3ZM5.232,1.384A3.725,3.725,0,0,0,1.455,5.307V11a3.725,3.725,0,0,0,3.777,3.922h8.681a3.965,3.965,0,0,0,2.776-1.166A3.583,3.583,0,0,0,17.715,11V5.266A3.578,3.578,0,0,0,16.688,2.55a3.965,3.965,0,0,0-2.776-1.166Z" fill="#fafafa"/>
            </g>
          </g>
        </g>
      </g>
      <rect id="Rectangle_2591" data-name="Rectangle 2591" width="18" height="4" transform="translate(114 775)" fill="#fafafa"/>
    </g>
  </g>
</svg>
