<svg id="Iconly_Light-outline_Home" data-name="Iconly/Light-outline/Home" xmlns="http://www.w3.org/2000/svg" width="26" height="26" viewBox="0 0 26 26">
  <g id="Home" transform="translate(2.709 2.167)">
    <path id="Home-2" data-name="Home" d="M16.554,21.665H14.4a1.974,1.974,0,0,1-1.939-1.83l-.011-.152v-3.1a.687.687,0,0,0-.585-.673l-.1-.011H8.872a.687.687,0,0,0-.671.585l-.011.1v3.088a1.147,1.147,0,0,1-.021.194l-.011.022-.013.075a1.964,1.964,0,0,1-1.829,1.691l-.141.01H4.235A4.237,4.237,0,0,1,0,17.656v-9A3.225,3.225,0,0,1,1.083,6.281L7.832.854A3.936,3.936,0,0,1,12.555.724l.175.131,6.6,5.277a3.262,3.262,0,0,1,1.247,2.306l.011.218V17.44A4.242,4.242,0,0,1,16.554,21.665ZM8.71,14.4h3.056a2.205,2.205,0,0,1,2.188,2.027v3.26a.472.472,0,0,0,.379.465h2.014a2.715,2.715,0,0,0,2.718-2.535l.013-.173V8.665a1.756,1.756,0,0,0-.542-1.224l-.14-.12L11.787,2.035a2.414,2.414,0,0,0-1.507-.524,2.445,2.445,0,0,0-1.353.4l-.164.12L2.176,7.344a1.682,1.682,0,0,0-.659,1.148L1.5,8.665V17.44a2.72,2.72,0,0,0,2.558,2.708H6.175a.464.464,0,0,0,.476-.388l.022-.195.012-.056V16.585A2.179,2.179,0,0,1,8.71,14.4Z" transform="translate(0 0)" fill="#fafafa"/>
  </g>
</svg>
